<svg width="14" height="10" viewBox="0 0 14 10" fill="none" xmlns="http://www.w3.org/2000/svg">
<path d="M2.92188 8.26987V2.50851H4.06818V8.26987H2.92188ZM0.616477 5.96021V4.81816H6.37784V5.96021H0.616477ZM7.98011 9.73578V8.78123L10.9332 5.72157C11.2486 5.38919 11.5085 5.09799 11.7131 4.84799C11.9205 4.59515 12.0753 4.3551 12.1776 4.12782C12.2798 3.90055 12.331 3.65907 12.331 3.40339C12.331 3.11362 12.2628 2.86362 12.1264 2.65339C11.9901 2.44032 11.804 2.27697 11.5682 2.16334C11.3324 2.04686 11.0668 1.98862 10.7713 1.98862C10.4588 1.98862 10.1861 2.05254 9.95312 2.18038C9.72017 2.30822 9.54119 2.48862 9.41619 2.72157C9.29119 2.95453 9.22869 3.22726 9.22869 3.53976H7.97159C7.97159 3.00851 8.09375 2.54402 8.33807 2.14629C8.58239 1.74856 8.91761 1.44032 9.34375 1.22157C9.76989 0.999983 10.2543 0.889188 10.7969 0.889188C11.3452 0.889188 11.8281 0.998563 12.2457 1.21731C12.6662 1.43322 12.9943 1.72868 13.2301 2.10368C13.4659 2.47584 13.5838 2.89629 13.5838 3.36504C13.5838 3.6889 13.5227 4.00567 13.4006 4.31532C13.2813 4.62498 13.0724 4.97015 12.7741 5.35084C12.4759 5.72868 12.0611 6.18748 11.5298 6.72726L9.79545 8.5426V8.60652H13.7244V9.73578H7.98011Z" fill="black"/>
</svg>
