<svg width="20" height="21" viewBox="0 0 20 21" fill="none" xmlns="http://www.w3.org/2000/svg">
<path d="M15 5.73578H17C18.1046 5.73578 19 6.63121 19 7.73578V13.7358C19 14.8403 18.1046 15.7358 17 15.7358H15V19.7358L11 15.7358H7C6.44772 15.7358 5.94772 15.5119 5.58579 15.15M5.58579 15.15L9 11.7358H13C14.1046 11.7358 15 10.8403 15 9.73578V3.73578C15 2.63121 14.1046 1.73578 13 1.73578H3C1.89543 1.73578 1 2.63121 1 3.73578V9.73578C1 10.8403 1.89543 11.7358 3 11.7358H5V15.7358L5.58579 15.15Z" stroke="#10B981" stroke-width="2" stroke-linecap="round" stroke-linejoin="round"/>
</svg>
