<svg width="16" height="16" viewBox="0 0 16 16" fill="none" xmlns="http://www.w3.org/2000/svg">
<path fill-rule="evenodd" clip-rule="evenodd" d="M1.15146 1.15146C1.62009 0.68283 2.37989 0.68283 2.84852 1.15146L7.99999 6.30293L13.1515 1.15146C13.6201 0.68283 14.3799 0.68283 14.8485 1.15146C15.3171 1.62009 15.3171 2.37989 14.8485 2.84852L9.69704 7.99999L14.8485 13.1515C15.3171 13.6201 15.3171 14.3799 14.8485 14.8485C14.3799 15.3171 13.6201 15.3171 13.1515 14.8485L7.99999 9.69704L2.84852 14.8485C2.37989 15.3171 1.62009 15.3171 1.15146 14.8485C0.68283 14.3799 0.68283 13.6201 1.15146 13.1515L6.30293 7.99999L1.15146 2.84852C0.68283 2.37989 0.68283 1.62009 1.15146 1.15146Z" fill="#94A3B8"/>
</svg>
