<svg width="10" height="18" viewBox="0 0 10 18" fill="none" xmlns="http://www.w3.org/2000/svg">
<path fill-rule="evenodd" clip-rule="evenodd" d="M0 0.666664V2.33333H0.833333V4.83333C0.833333 5.9384 1.27232 6.99821 2.05372 7.77961C2.83512 8.56101 3.89493 9 5 9C3.89493 9 2.83512 9.43898 2.05372 10.2204C1.27232 11.0018 0.833333 12.0616 0.833333 13.1667V15.6667H0V17.3333H10V15.6667H9.16667V13.1667C9.16667 12.0616 8.72768 11.0018 7.94628 10.2204C7.16488 9.43898 6.10507 9 5 9C5.54717 9 6.08899 8.89222 6.59451 8.68283C7.10004 8.47343 7.55937 8.16652 7.94628 7.77961C8.33319 7.3927 8.6401 6.93337 8.8495 6.42785C9.05889 5.92232 9.16667 5.38051 9.16667 4.83333V2.33333H10V0.666664H0ZM2.5 2.33333H7.5V4.83333C7.5 5.49637 7.23661 6.13226 6.76777 6.6011C6.29893 7.06994 5.66304 7.33333 5 7.33333C4.33696 7.33333 3.70107 7.06994 3.23223 6.6011C2.76339 6.13226 2.5 5.49637 2.5 4.83333V2.33333ZM2.5 13.1667V15.6667H7.5V13.1667C7.5 12.5036 7.23661 11.8677 6.76777 11.3989C6.29893 10.9301 5.66304 10.6667 5 10.6667C4.33696 10.6667 3.70107 10.9301 3.23223 11.3989C2.76339 11.8677 2.5 12.5036 2.5 13.1667Z" fill="#94A3B8"/>
</svg>
