<svg width="20" height="20" viewBox="0 0 20 20" fill="none" xmlns="http://www.w3.org/2000/svg">
<path d="M4.0001 1.60001C2.67461 1.60001 1.6001 2.67452 1.6001 4.00001V6.40001C1.6001 7.72549 2.67461 8.80001 4.0001 8.80001H6.4001C7.72558 8.80001 8.8001 7.72549 8.8001 6.40001V4.00001C8.8001 2.67452 7.72558 1.60001 6.4001 1.60001H4.0001Z" stroke="#64748B" stroke-width="2" stroke-linecap="round" stroke-linejoin="round"/>
<path d="M4.0001 11.2C2.67461 11.2 1.6001 12.2745 1.6001 13.6V16C1.6001 17.3255 2.67461 18.4 4.0001 18.4H6.4001C7.72558 18.4 8.8001 17.3255 8.8001 16V13.6C8.8001 12.2745 7.72558 11.2 6.4001 11.2H4.0001Z" stroke="#64748B" stroke-width="2" stroke-linecap="round" stroke-linejoin="round"/>
<path d="M11.2001 4.00001C11.2001 2.67452 12.2746 1.60001 13.6001 1.60001H16.0001C17.3256 1.60001 18.4001 2.67452 18.4001 4.00001V6.40001C18.4001 7.72549 17.3256 8.80001 16.0001 8.80001H13.6001C12.2746 8.80001 11.2001 7.72549 11.2001 6.40001V4.00001Z" stroke="#64748B" stroke-width="2" stroke-linecap="round" stroke-linejoin="round"/>
<path d="M11.2001 13.6C11.2001 12.2745 12.2746 11.2 13.6001 11.2H16.0001C17.3256 11.2 18.4001 12.2745 18.4001 13.6V16C18.4001 17.3255 17.3256 18.4 16.0001 18.4H13.6001C12.2746 18.4 11.2001 17.3255 11.2001 16V13.6Z" stroke="#64748B" stroke-width="2" stroke-linecap="round" stroke-linejoin="round"/>
</svg>
