<svg width="21" height="20" viewBox="0 0 21 20" fill="none" xmlns="http://www.w3.org/2000/svg">
<path d="M19.0999 9.99999C19.0999 14.7496 15.2496 18.6 10.4999 18.6C5.75025 18.6 1.8999 14.7496 1.8999 9.99999C1.8999 5.25035 5.75025 1.39999 10.4999 1.39999C15.2496 1.39999 19.0999 5.25035 19.0999 9.99999ZM10.5202 5.76948C9.84516 5.31943 8.97716 5.27747 8.26181 5.66031C7.54647 6.04315 7.0999 6.78865 7.0999 7.6V12.4C7.0999 13.2113 7.54647 13.9568 8.26182 14.3397C8.97716 14.7225 9.84516 14.6806 10.5202 14.2305L14.1202 11.8305C14.7323 11.4225 15.0999 10.7356 15.0999 10C15.0999 9.26442 14.7323 8.57751 14.1202 8.16949L10.5202 5.76948Z" fill="white" stroke="white" stroke-width="2"/>
</svg>
