<svg width="17" height="16" viewBox="0 0 17 16" fill="none" xmlns="http://www.w3.org/2000/svg">
<path fill-rule="evenodd" clip-rule="evenodd" d="M8.5 16C12.9183 16 16.5 12.4183 16.5 8C16.5 3.58172 12.9183 0 8.5 0C4.08172 0 0.5 3.58172 0.5 8C0.5 12.4183 4.08172 16 8.5 16ZM9.5 5C9.5 4.44772 9.05228 4 8.5 4C7.94772 4 7.5 4.44772 7.5 5V7H5.5C4.94772 7 4.5 7.44771 4.5 8C4.5 8.55228 4.94772 9 5.5 9H7.5V11C7.5 11.5523 7.94772 12 8.5 12C9.05228 12 9.5 11.5523 9.5 11V9H11.5C12.0523 9 12.5 8.55228 12.5 8C12.5 7.44772 12.0523 7 11.5 7H9.5V5Z" fill="white"/>
</svg>
