<svg width="17" height="16" viewBox="0 0 17 16" fill="none" xmlns="http://www.w3.org/2000/svg">
<path fill-rule="evenodd" clip-rule="evenodd" d="M16.5 8C16.5 12.4183 12.9183 16 8.5 16C4.08172 16 0.5 12.4183 0.5 8C0.5 3.58172 4.08172 0 8.5 0C12.9183 0 16.5 3.58172 16.5 8ZM5.5 6C5.5 5.44772 5.94772 5 6.5 5C7.05228 5 7.5 5.44772 7.5 6V10C7.5 10.5523 7.05228 11 6.5 11C5.94772 11 5.5 10.5523 5.5 10V6ZM10.5 5C9.94771 5 9.5 5.44772 9.5 6V10C9.5 10.5523 9.94771 11 10.5 11C11.0523 11 11.5 10.5523 11.5 10V6C11.5 5.44772 11.0523 5 10.5 5Z" fill="white"/>
</svg>
